<mxfile host="Electron" modified="2024-04-07T21:53:21.457Z" agent="Mozilla/5.0 (Windows NT 10.0; Win64; x64) AppleWebKit/537.36 (KHTML, like Gecko) draw.io/23.1.5 Chrome/120.0.6099.109 Electron/28.1.0 Safari/537.36" version="23.1.5" etag="P9W_xCn6Mvip0zpicQg4" type="device" pages="2">
  <diagram id="GjNw-cjdmYV0N47HmfTF" name="class diagram">
    <mxGraphModel dx="1754" dy="3680" grid="0" gridSize="10" guides="1" tooltips="1" connect="1" arrows="1" fold="1" page="0" pageScale="1" pageWidth="850" pageHeight="1100" background="none" math="0" shadow="0">
      <root>
        <mxCell id="0" />
        <mxCell id="1" parent="0" />
        <mxCell id="HF-wavBuNwFzo_xBbMRK-1" value="&lt;p style=&quot;margin:0px;margin-top:4px;text-align:center;&quot;&gt;&lt;b&gt;Book&lt;/b&gt;&lt;/p&gt;&lt;hr size=&quot;1&quot;/&gt;&lt;p style=&quot;margin:0 0 0 4px;line-height:1.6;&quot;&gt;- title: String&lt;br/&gt;- author: String&lt;br/&gt;- id: String&lt;br/&gt;- genre: Genre&lt;br/&gt;- quantity: Integer&lt;br/&gt;- isUnavailable: boolean&lt;/p&gt;" style="verticalAlign=top;align=left;overflow=fill;fontSize=14;fontFamily=Helvetica;html=1;rounded=0;shadow=0;comic=0;labelBackgroundColor=none;strokeWidth=1;" vertex="1" parent="1">
          <mxGeometry x="-102" y="-2224" width="183" height="199" as="geometry" />
        </mxCell>
        <mxCell id="HF-wavBuNwFzo_xBbMRK-2" value="&lt;p style=&quot;margin:0px;margin-top:4px;text-align:center;&quot;&gt;&lt;i&gt;&amp;lt;&amp;lt;enumeration&amp;gt;&amp;gt;&lt;/i&gt;&lt;br/&gt;&lt;b&gt;Genre&lt;/b&gt;&lt;/p&gt;&lt;hr size=&quot;1&quot;/&gt;&lt;p style=&quot;margin:0 0 0 4px;line-height:1.6;&quot;&gt;+ SOFTWARE_PROGRAMMING: &lt;br/&gt;+ ACTION: &lt;br/&gt;+ SCI_FI: &lt;br/&gt;+ FICTION: &lt;br/&gt;+ DRAMA: &lt;br/&gt;+ ROMANCE: &lt;/p&gt;" style="verticalAlign=top;align=left;overflow=fill;fontSize=14;fontFamily=Helvetica;html=1;rounded=0;shadow=0;comic=0;labelBackgroundColor=none;strokeWidth=1;" vertex="1" parent="1">
          <mxGeometry x="-125" y="-1853" width="229" height="199" as="geometry" />
        </mxCell>
        <mxCell id="HF-wavBuNwFzo_xBbMRK-3" value="&lt;p style=&quot;margin:0px;margin-top:4px;text-align:center;&quot;&gt;&lt;b&gt;LibraryLoan&lt;/b&gt;&lt;/p&gt;&lt;hr size=&quot;1&quot;/&gt;&lt;p style=&quot;margin:0 0 0 4px;line-height:1.6;&quot;&gt;- book: Book&lt;br/&gt;- id: String&lt;br/&gt;- borrowedAt: LocalDateTime&lt;br/&gt;- returnedAt: LocalDateTime&lt;br/&gt;- borrower: Borrower&lt;/p&gt;" style="verticalAlign=top;align=left;overflow=fill;fontSize=14;fontFamily=Helvetica;html=1;rounded=0;shadow=0;comic=0;labelBackgroundColor=none;strokeWidth=1;" vertex="1" parent="1">
          <mxGeometry x="396" y="-2206" width="218" height="171" as="geometry" />
        </mxCell>
        <mxCell id="HF-wavBuNwFzo_xBbMRK-7" value="&lt;p style=&quot;margin:0px;margin-top:4px;text-align:center;&quot;&gt;&lt;b&gt;Borrower&lt;/b&gt;&lt;/p&gt;&lt;hr size=&quot;1&quot;/&gt;&lt;p style=&quot;margin:0 0 0 4px;line-height:1.6;&quot;&gt;- member: User&lt;br/&gt;- id: String&lt;br/&gt;- libraryLoans: List&amp;lt;LibraryLoan&amp;gt;&lt;br/&gt;- books: List&amp;lt;Book&amp;gt;&lt;/p&gt;" style="verticalAlign=top;align=left;overflow=fill;fontSize=14;fontFamily=Helvetica;html=1;rounded=0;shadow=0;comic=0;labelBackgroundColor=none;strokeWidth=1;" vertex="1" parent="1">
          <mxGeometry x="-139" y="-2554" width="239" height="143" as="geometry" />
        </mxCell>
        <mxCell id="HF-wavBuNwFzo_xBbMRK-8" value="&lt;p style=&quot;margin:0px;margin-top:4px;text-align:center;&quot;&gt;&lt;i&gt;&amp;lt;&amp;lt;enumeration&amp;gt;&amp;gt;&lt;/i&gt;&lt;br/&gt;&lt;b&gt;Role&lt;/b&gt;&lt;/p&gt;&lt;hr size=&quot;1&quot;/&gt;&lt;p style=&quot;margin:0 0 0 4px;line-height:1.6;&quot;&gt;+ MEMBER: &lt;br/&gt;+ LIBRARIAN: &lt;/p&gt;" style="verticalAlign=top;align=left;overflow=fill;fontSize=14;fontFamily=Helvetica;html=1;rounded=0;shadow=0;comic=0;labelBackgroundColor=none;strokeWidth=1;" vertex="1" parent="1">
          <mxGeometry x="730.5" y="-2211" width="117" height="109" as="geometry" />
        </mxCell>
        <mxCell id="HF-wavBuNwFzo_xBbMRK-9" value="&lt;p style=&quot;margin:0px;margin-top:4px;text-align:center;&quot;&gt;&lt;b&gt;User&lt;/b&gt;&lt;/p&gt;&lt;hr size=&quot;1&quot;/&gt;&lt;p style=&quot;margin:0 0 0 4px;line-height:1.6;&quot;&gt;- name: String&lt;br/&gt;- isLoggedIn: boolean&lt;br/&gt;- id: String&lt;br/&gt;- role: Role&lt;br/&gt;- password: String&lt;br/&gt;- username: String&lt;/p&gt;" style="verticalAlign=top;align=left;overflow=fill;fontSize=14;fontFamily=Helvetica;html=1;rounded=0;shadow=0;comic=0;labelBackgroundColor=none;strokeWidth=1;" vertex="1" parent="1">
          <mxGeometry x="704" y="-2615" width="170" height="199" as="geometry" />
        </mxCell>
        <mxCell id="HF-wavBuNwFzo_xBbMRK-14" value="" style="html=1;startArrow=diamondThin;startFill=1;edgeStyle=elbowEdgeStyle;elbow=vertical;startSize=10;endArrow=none;endFill=0;rounded=0;entryX=0.5;entryY=1;entryDx=0;entryDy=0;exitX=0.5;exitY=0;exitDx=0;exitDy=0;" edge="1" parent="1" source="HF-wavBuNwFzo_xBbMRK-8" target="HF-wavBuNwFzo_xBbMRK-9">
          <mxGeometry width="160" relative="1" as="geometry">
            <mxPoint x="333" y="-2273" as="sourcePoint" />
            <mxPoint x="488" y="-2275" as="targetPoint" />
          </mxGeometry>
        </mxCell>
        <mxCell id="HF-wavBuNwFzo_xBbMRK-16" value="" style="html=1;startArrow=diamondThin;startFill=1;edgeStyle=elbowEdgeStyle;elbow=vertical;startSize=10;endArrow=none;endFill=0;rounded=0;entryX=0.75;entryY=1;entryDx=0;entryDy=0;exitX=0.25;exitY=0;exitDx=0;exitDy=0;" edge="1" parent="1" source="HF-wavBuNwFzo_xBbMRK-3" target="HF-wavBuNwFzo_xBbMRK-7">
          <mxGeometry width="160" relative="1" as="geometry">
            <mxPoint x="182" y="-2310" as="sourcePoint" />
            <mxPoint x="342" y="-2310" as="targetPoint" />
          </mxGeometry>
        </mxCell>
        <mxCell id="HF-wavBuNwFzo_xBbMRK-17" value="" style="html=1;startArrow=diamondThin;startFill=1;edgeStyle=elbowEdgeStyle;elbow=vertical;startSize=10;endArrow=none;endFill=0;rounded=0;entryX=0.54;entryY=1.007;entryDx=0;entryDy=0;entryPerimeter=0;exitX=0.5;exitY=0;exitDx=0;exitDy=0;" edge="1" parent="1" source="HF-wavBuNwFzo_xBbMRK-1" target="HF-wavBuNwFzo_xBbMRK-7">
          <mxGeometry width="160" relative="1" as="geometry">
            <mxPoint x="106" y="-2254" as="sourcePoint" />
            <mxPoint x="266" y="-2254" as="targetPoint" />
          </mxGeometry>
        </mxCell>
        <mxCell id="HF-wavBuNwFzo_xBbMRK-18" value="" style="html=1;startArrow=diamondThin;startFill=1;edgeStyle=elbowEdgeStyle;elbow=vertical;startSize=10;endArrow=none;endFill=0;rounded=0;entryX=0.5;entryY=1;entryDx=0;entryDy=0;exitX=0.5;exitY=0;exitDx=0;exitDy=0;" edge="1" parent="1" source="HF-wavBuNwFzo_xBbMRK-2" target="HF-wavBuNwFzo_xBbMRK-1">
          <mxGeometry width="160" relative="1" as="geometry">
            <mxPoint x="37" y="-1922" as="sourcePoint" />
            <mxPoint x="197" y="-1922" as="targetPoint" />
          </mxGeometry>
        </mxCell>
        <mxCell id="HF-wavBuNwFzo_xBbMRK-20" value="" style="html=1;startArrow=diamondThin;startFill=1;edgeStyle=elbowEdgeStyle;elbow=vertical;startSize=10;endArrow=none;endFill=0;rounded=0;entryX=0.75;entryY=0;entryDx=0;entryDy=0;exitX=1;exitY=0.75;exitDx=0;exitDy=0;" edge="1" parent="1" source="HF-wavBuNwFzo_xBbMRK-7" target="HF-wavBuNwFzo_xBbMRK-3">
          <mxGeometry width="160" relative="1" as="geometry">
            <mxPoint x="196" y="-2440" as="sourcePoint" />
            <mxPoint x="569.5" y="-2220.25" as="targetPoint" />
            <Array as="points">
              <mxPoint x="411" y="-2431.25" />
            </Array>
          </mxGeometry>
        </mxCell>
        <mxCell id="HF-wavBuNwFzo_xBbMRK-22" value="" style="html=1;startArrow=diamondThin;startFill=1;edgeStyle=elbowEdgeStyle;elbow=vertical;startSize=10;endArrow=none;endFill=0;rounded=0;entryX=0;entryY=0.5;entryDx=0;entryDy=0;exitX=1;exitY=0.5;exitDx=0;exitDy=0;" edge="1" parent="1" source="HF-wavBuNwFzo_xBbMRK-1" target="HF-wavBuNwFzo_xBbMRK-3">
          <mxGeometry width="160" relative="1" as="geometry">
            <mxPoint x="161" y="-2131.31" as="sourcePoint" />
            <mxPoint x="300" y="-2114" as="targetPoint" />
          </mxGeometry>
        </mxCell>
        <mxCell id="HF-wavBuNwFzo_xBbMRK-27" value="" style="html=1;startArrow=diamondThin;startFill=1;edgeStyle=elbowEdgeStyle;elbow=vertical;startSize=10;endArrow=none;endFill=0;rounded=0;entryX=1;entryY=0.5;entryDx=0;entryDy=0;exitX=0;exitY=0.5;exitDx=0;exitDy=0;" edge="1" parent="1" source="HF-wavBuNwFzo_xBbMRK-9" target="HF-wavBuNwFzo_xBbMRK-7">
          <mxGeometry width="160" relative="1" as="geometry">
            <mxPoint x="224" y="-2489" as="sourcePoint" />
            <mxPoint x="290" y="-2470" as="targetPoint" />
          </mxGeometry>
        </mxCell>
      </root>
    </mxGraphModel>
  </diagram>
  <diagram id="mHqzD65jA2WHmli0TH4w" name="use case diagram">
    <mxGraphModel dx="880" dy="572" grid="0" gridSize="10" guides="1" tooltips="1" connect="1" arrows="1" fold="1" page="1" pageScale="1" pageWidth="850" pageHeight="1100" math="0" shadow="0">
      <root>
        <mxCell id="0" />
        <mxCell id="1" parent="0" />
        <mxCell id="uiMIMM6_nGXAOppbVgh5-1" value="User" style="shape=umlActor;verticalLabelPosition=bottom;verticalAlign=top;html=1;" vertex="1" parent="1">
          <mxGeometry x="34" y="220.5" width="30" height="60" as="geometry" />
        </mxCell>
        <mxCell id="uiMIMM6_nGXAOppbVgh5-2" value="signup" style="ellipse;whiteSpace=wrap;html=1;" vertex="1" parent="1">
          <mxGeometry x="365" y="104" width="120" height="80" as="geometry" />
        </mxCell>
        <mxCell id="uiMIMM6_nGXAOppbVgh5-3" value="login/logout" style="ellipse;whiteSpace=wrap;html=1;" vertex="1" parent="1">
          <mxGeometry x="434" y="355" width="120" height="80" as="geometry" />
        </mxCell>
        <mxCell id="uiMIMM6_nGXAOppbVgh5-4" value="logout" style="ellipse;whiteSpace=wrap;html=1;" vertex="1" parent="1">
          <mxGeometry x="309" y="236" width="120" height="80" as="geometry" />
        </mxCell>
        <mxCell id="uiMIMM6_nGXAOppbVgh5-30" value="Member" style="shape=umlActor;html=1;verticalLabelPosition=bottom;verticalAlign=top;align=center;" vertex="1" parent="1">
          <mxGeometry x="34" y="445" width="30" height="60" as="geometry" />
        </mxCell>
        <mxCell id="uiMIMM6_nGXAOppbVgh5-31" value="borrow book" style="ellipse;whiteSpace=wrap;html=1;" vertex="1" parent="1">
          <mxGeometry x="216" y="383" width="140" height="70" as="geometry" />
        </mxCell>
        <mxCell id="uiMIMM6_nGXAOppbVgh5-32" value="return book" style="ellipse;whiteSpace=wrap;html=1;" vertex="1" parent="1">
          <mxGeometry x="230" y="575" width="140" height="70" as="geometry" />
        </mxCell>
        <mxCell id="uiMIMM6_nGXAOppbVgh5-33" value="&amp;lt;&amp;lt;extend&amp;gt;&amp;gt;" style="edgeStyle=none;html=1;startArrow=open;endArrow=none;startSize=12;verticalAlign=bottom;dashed=1;labelBackgroundColor=none;rounded=0;exitX=0.5;exitY=1;exitDx=0;exitDy=0;entryX=0.5;entryY=0;entryDx=0;entryDy=0;" edge="1" parent="1" source="uiMIMM6_nGXAOppbVgh5-31" target="uiMIMM6_nGXAOppbVgh5-32">
          <mxGeometry width="160" relative="1" as="geometry">
            <mxPoint x="283" y="783" as="sourcePoint" />
            <mxPoint x="443" y="783" as="targetPoint" />
          </mxGeometry>
        </mxCell>
        <mxCell id="uiMIMM6_nGXAOppbVgh5-34" value="" style="edgeStyle=none;html=1;endArrow=none;verticalAlign=bottom;rounded=0;entryX=0;entryY=1;entryDx=0;entryDy=0;exitX=1;exitY=0.3333333333333333;exitDx=0;exitDy=0;exitPerimeter=0;" edge="1" parent="1" source="uiMIMM6_nGXAOppbVgh5-30" target="uiMIMM6_nGXAOppbVgh5-31">
          <mxGeometry width="160" relative="1" as="geometry">
            <mxPoint x="283" y="783" as="sourcePoint" />
            <mxPoint x="443" y="783" as="targetPoint" />
          </mxGeometry>
        </mxCell>
        <mxCell id="uiMIMM6_nGXAOppbVgh5-35" value="&amp;lt;&amp;lt;extend&amp;gt;&amp;gt;" style="edgeStyle=none;html=1;startArrow=open;endArrow=none;startSize=12;verticalAlign=bottom;dashed=1;labelBackgroundColor=none;rounded=0;exitX=0.5;exitY=1;exitDx=0;exitDy=0;entryX=0.5;entryY=0;entryDx=0;entryDy=0;" edge="1" parent="1" source="uiMIMM6_nGXAOppbVgh5-2" target="uiMIMM6_nGXAOppbVgh5-4">
          <mxGeometry width="160" relative="1" as="geometry">
            <mxPoint x="402" y="296" as="sourcePoint" />
            <mxPoint x="562" y="296" as="targetPoint" />
          </mxGeometry>
        </mxCell>
        <mxCell id="uiMIMM6_nGXAOppbVgh5-36" value="&amp;lt;&amp;lt;extend&amp;gt;&amp;gt;" style="edgeStyle=none;html=1;startArrow=open;endArrow=none;startSize=12;verticalAlign=bottom;dashed=1;labelBackgroundColor=none;rounded=0;exitX=1;exitY=1;exitDx=0;exitDy=0;" edge="1" parent="1" source="uiMIMM6_nGXAOppbVgh5-2" target="uiMIMM6_nGXAOppbVgh5-3">
          <mxGeometry width="160" relative="1" as="geometry">
            <mxPoint x="354" y="284" as="sourcePoint" />
            <mxPoint x="514" y="296" as="targetPoint" />
          </mxGeometry>
        </mxCell>
        <mxCell id="uiMIMM6_nGXAOppbVgh5-37" value="" style="edgeStyle=none;html=1;endArrow=none;verticalAlign=bottom;rounded=0;exitX=1;exitY=0.3333333333333333;exitDx=0;exitDy=0;exitPerimeter=0;entryX=0;entryY=0.5;entryDx=0;entryDy=0;" edge="1" parent="1" source="uiMIMM6_nGXAOppbVgh5-1" target="uiMIMM6_nGXAOppbVgh5-2">
          <mxGeometry width="160" relative="1" as="geometry">
            <mxPoint x="354" y="296" as="sourcePoint" />
            <mxPoint x="514" y="296" as="targetPoint" />
          </mxGeometry>
        </mxCell>
        <mxCell id="uiMIMM6_nGXAOppbVgh5-38" value="" style="edgeStyle=none;html=1;endArrow=none;verticalAlign=bottom;rounded=0;exitX=1;exitY=0.3333333333333333;exitDx=0;exitDy=0;exitPerimeter=0;entryX=0;entryY=0;entryDx=0;entryDy=0;" edge="1" parent="1" source="uiMIMM6_nGXAOppbVgh5-1" target="uiMIMM6_nGXAOppbVgh5-3">
          <mxGeometry width="160" relative="1" as="geometry">
            <mxPoint x="298" y="296" as="sourcePoint" />
            <mxPoint x="458" y="296" as="targetPoint" />
          </mxGeometry>
        </mxCell>
        <mxCell id="uiMIMM6_nGXAOppbVgh5-39" value="" style="edgeStyle=none;html=1;endArrow=none;verticalAlign=bottom;rounded=0;exitX=1;exitY=0.3333333333333333;exitDx=0;exitDy=0;exitPerimeter=0;entryX=0;entryY=0;entryDx=0;entryDy=0;" edge="1" parent="1" source="uiMIMM6_nGXAOppbVgh5-1" target="uiMIMM6_nGXAOppbVgh5-4">
          <mxGeometry width="160" relative="1" as="geometry">
            <mxPoint x="298" y="296" as="sourcePoint" />
            <mxPoint x="458" y="296" as="targetPoint" />
          </mxGeometry>
        </mxCell>
        <mxCell id="uiMIMM6_nGXAOppbVgh5-40" value="Librarian" style="shape=umlActor;html=1;verticalLabelPosition=bottom;verticalAlign=top;align=center;" vertex="1" parent="1">
          <mxGeometry x="38" y="19" width="30" height="60" as="geometry" />
        </mxCell>
        <mxCell id="uiMIMM6_nGXAOppbVgh5-41" value="" style="edgeStyle=none;html=1;endArrow=none;verticalAlign=bottom;rounded=0;exitX=1;exitY=0.3333333333333333;exitDx=0;exitDy=0;exitPerimeter=0;entryX=0;entryY=0.5;entryDx=0;entryDy=0;" edge="1" parent="1" source="uiMIMM6_nGXAOppbVgh5-30" target="uiMIMM6_nGXAOppbVgh5-32">
          <mxGeometry width="160" relative="1" as="geometry">
            <mxPoint x="298" y="552" as="sourcePoint" />
            <mxPoint x="458" y="552" as="targetPoint" />
          </mxGeometry>
        </mxCell>
        <mxCell id="uiMIMM6_nGXAOppbVgh5-42" value="" style="edgeStyle=none;html=1;endArrow=block;endFill=0;endSize=12;verticalAlign=bottom;rounded=0;exitX=0.5;exitY=0;exitDx=0;exitDy=0;exitPerimeter=0;entryX=0.467;entryY=0.792;entryDx=0;entryDy=0;entryPerimeter=0;" edge="1" parent="1" source="uiMIMM6_nGXAOppbVgh5-30" target="uiMIMM6_nGXAOppbVgh5-1">
          <mxGeometry width="160" relative="1" as="geometry">
            <mxPoint x="298" y="489" as="sourcePoint" />
            <mxPoint x="458" y="489" as="targetPoint" />
          </mxGeometry>
        </mxCell>
        <mxCell id="uiMIMM6_nGXAOppbVgh5-45" value="" style="edgeStyle=none;html=1;endArrow=block;endFill=0;endSize=12;verticalAlign=bottom;rounded=0;exitX=0;exitY=1;exitDx=0;exitDy=0;exitPerimeter=0;entryX=0.5;entryY=0;entryDx=0;entryDy=0;entryPerimeter=0;" edge="1" parent="1" source="uiMIMM6_nGXAOppbVgh5-40" target="uiMIMM6_nGXAOppbVgh5-1">
          <mxGeometry width="160" relative="1" as="geometry">
            <mxPoint x="62.5" y="79" as="sourcePoint" />
            <mxPoint x="51" y="172" as="targetPoint" />
          </mxGeometry>
        </mxCell>
        <mxCell id="uiMIMM6_nGXAOppbVgh5-47" value="add book" style="ellipse;whiteSpace=wrap;html=1;" vertex="1" parent="1">
          <mxGeometry x="261" y="9" width="140" height="70" as="geometry" />
        </mxCell>
        <mxCell id="uiMIMM6_nGXAOppbVgh5-48" value="" style="edgeStyle=none;html=1;endArrow=none;verticalAlign=bottom;rounded=0;exitX=1;exitY=0.3333333333333333;exitDx=0;exitDy=0;exitPerimeter=0;entryX=0;entryY=0.5;entryDx=0;entryDy=0;" edge="1" parent="1" source="uiMIMM6_nGXAOppbVgh5-40" target="uiMIMM6_nGXAOppbVgh5-47">
          <mxGeometry width="160" relative="1" as="geometry">
            <mxPoint x="85" y="48.5" as="sourcePoint" />
            <mxPoint x="245" y="48.5" as="targetPoint" />
          </mxGeometry>
        </mxCell>
      </root>
    </mxGraphModel>
  </diagram>
</mxfile>
